<?xml version="1.0" encoding="UTF-8"?>
<!DOCTYPE svg PUBLIC "-//W3C//DTD SVG 1.1//EN" "http://www.w3.org/Graphics/SVG/1.1/DTD/svg11.dtd">
<!-- Creator: CorelDRAW -->
<svg xmlns="http://www.w3.org/2000/svg" xml:space="preserve" width="215.9mm" height="279.4mm" style="shape-rendering:geometricPrecision; text-rendering:geometricPrecision; image-rendering:optimizeQuality; fill-rule:evenodd; clip-rule:evenodd"
viewBox="0 0 215.9 279.4"
 xmlns:xlink="http://www.w3.org/1999/xlink">
 <defs>
  <style type="text/css">
   <![CDATA[
    .str1 {stroke:white;stroke-width:0.706}
    .str0 {stroke:white;stroke-width:2.8222}
    .fil1 {fill:none}
    .fil0 {fill:#ECC021}
    .fil2 {fill:white}
   ]]>
  </style>
 </defs>
 <g id="Capa_x0020_1">
  <metadata id="CorelCorpID_0Corel-Layer"/>
  <rect class="fil0" x="27.95" y="59.6999" width="160" height="160"/>
  <g id="_74392048">
   <circle id="_74393128" class="fil1 str0" cx="107.95" cy="139.7" r="75"/>
   <g>
    <path id="_74393056" class="fil2 str1" d="M123.321 108.622c-2.808,-5.1096 -10.5072,-5.5617 -15.5607,-4.8624 -5.6862,0.7866 -11.3763,3.2073 -15.0522,7.7523 -4.0044,4.9509 -6.402,12.9447 -4.8447,19.2336 1.0059,4.0623 4.545,7.5393 8.7168,8.3562 0.4851,0.0951 0.9789,0.1881 1.4796,0.2775 0.3567,-0.7284 0.7194,-1.4403 1.0869,-2.1327 3.9312,-7.4064 13.3494,-13.7634 21.8127,-10.1538 3.9414,1.6809 6.1539,6.639 2.9394,10.1139 -3.1029,3.3543 -8.3619,4.6632 -12.7713,4.845 -3.6933,0.1524 -8.0658,0.2961 -12.1623,-0.3654 -4.869,10.4316 -8.1168,24.0435 -1.4466,34.101 3.7044,5.586 10.7433,5.9154 16.863,5.7516 8.9712,-0.2403 19.0392,-3.0897 21.06,-12.9864 1.2021,-5.8872 -1.3401,-11.8596 -6.3111,-15.2526 -8.301,-5.6658 -19.9335,-1.4196 -24.6003,7.0227 -3.7227,6.7344 -0.6912,15.2658 6.9579,17.4999 7.6617,2.2377 15.9972,1.2759 20.388,-6.1584 2.7306,-4.6233 4.3461,-11.8074 -1.482,-14.7 -5.8968,-2.9268 -14.3796,0.4809 -15.1458,7.3677 -0.4503,4.0476 3.3684,7.9773 7.4415,6.0465 2.5962,-1.2306 3.3945,-3.7647 4.2438,-6.2772l0.1428 0.0294c-1.0815,3.6114 -3.1317,7.9812 -7.7622,7.017 -6.5535,-1.3647 -5.1669,-10.0326 -1.1535,-13.3101 4.4439,-3.6288 12.507,-3.7608 15.9102,1.3545 3.4947,5.253 -0.6978,13.4382 -4.8051,17.0208 -8.6001,7.5012 -27.4446,3.702 -27.6519,-9.4179 -0.1425,-9.0243 8.9592,-16.4532 17.3283,-17.4213 9.975,-1.1538 18.933,7.5996 18.198,17.4711 -0.3075,4.131 -2.2392,8.4435 -5.5251,11.0721 -6.5391,5.2311 -15.0123,5.5311 -23.0232,5.0616 -5.0463,-0.2955 -9.5568,-1.9614 -12.4617,-6.2631 -7.0164,-10.3908 -3.9498,-24.4506 1.0095,-35.3847 -4.5405,-1.0485 -8.538,-3.294 -10.5855,-7.9116 -2.4321,-5.4852 -0.8451,-11.9343 1.0584,-17.2908 4.5624,-12.8388 21.3102,-17.9928 33.237,-12.8367 2.16,0.9336 3.5001,2.4942 4.5894,4.4703 0.2376,0.585 -0.0438,1.2516 -0.6288,1.4892 -0.585,0.2376 -1.2516,-0.0438 -1.4892,-0.6288zm-23.3868 31.0689c7.3365,1.1283 15.8073,1.269 21.8796,-3.1563 1.6644,-1.2129 2.1876,-3.5676 1.1391,-5.319 -2.1903,-3.6585 -7.6116,-3.7209 -11.1834,-2.5671 -4.6779,1.5111 -8.7555,5.2362 -11.0658,9.5598 -0.2589,0.4845 -0.5151,0.9789 -0.7695,1.4826z"/>
   </g>
   <path id="_74392864" class="fil1" d="M124.38 108.192c-3.4694,-8.5311 -29.3062,-9.0074 -35.7603,8.3118 -5.2279,14.0289 -2.5129,26.6753 22.4227,24.549 22.9194,-1.9544 12.7577,-19.7165 -2.3196,-12.1778 -13.1443,6.5721 -22.0361,37.6933 -9.8583,49.8711 4.2526,4.2525 15.117,3.7981 20.2964,3.2861 16.7851,-1.6594 20.1466,-15.951 15.229,-24.1231 -4.9266,-8.1871 -16.8194,-12.0352 -27.4068,-1.779 -4.7859,4.6361 -6.5722,11.9288 -2.6012,17.1894 6.6184,8.7679 25.9575,10.0566 30.0926,-6.971 3.2416,-13.3482 -16.406,-13.9123 -19.2073,-3.6404 -2.4177,8.8654 9.4181,12.6194 11.7377,1.4081"/>
   <g>
    <path id="_74392792" class="fil2 str1" d="M116.384 182.829c-7.1601,0.0789 -15.1641,0.4461 -21.9489,-2.5491 -0.0849,-0.0375 -0.168,-0.0771 -0.2508,-0.1182 -0.8604,-0.2955 -1.719,-0.6384 -2.5743,-1.0371 -6.462,-3.0129 -13.4706,-5.2416 -18.4044,-10.6557 -2.2671,-2.4876 -4.5228,-6.135 -2.6574,-9.5205 0.9504,-1.7247 2.8524,-2.6016 4.7736,-2.0679 5.9565,1.6551 7.5495,9.1554 10.3635,13.6539 0.9192,1.4691 2.3889,2.4933 3.732,3.5883 1.6326,1.3311 3.7932,3.4371 5.7876,4.2525 6.4476,2.6367 13.839,2.3373 20.6007,2.2422 0.6108,-0.1596 1.2354,0.2058 1.395,0.8166 0.1596,0.6108 -0.2058,1.2354 -0.8166,1.395zm-25.392 -5.025c-0.0528,-0.0426 -0.1071,-0.084 -0.1605,-0.126l-5.1411 -4.1349c-2.8341,-3.0732 -3.5475,-7.3197 -6.0201,-10.6713 -1.0659,-1.4451 -4.3737,-5.9973 -6.9579,-4.02 -1.8222,1.3941 -1.4742,4.4739 -0.2721,6.1425 4.5879,6.3672 11.5452,9.6858 18.5517,12.8097z"/>
   </g>
   <path id="_74392600" class="fil1" d="M116.095 181.723c-4.7657,1.2459 -20.5877,-1.1242 -22.6425,-3.1699 -1.9372,-1.9286 -7.5475,-5.2659 -8.6302,-7.6224 -2.2042,-4.7975 -2.7745,-7.2616 -7.027,-11.5142 -5.0258,-5.0258 -9.2784,1.1598 -5.9923,5.9923 4.8325,7.5386 12.583,9.6254 18.3634,12.3711 1.9521,0.9272 5.3525,3.0244 7.5392,3.049 1.821,0.0205 12.6353,1.9362 18.3894,0.8941z"/>
   <g>
    <path id="_74392528" class="fil2 str1" d="M74.3491 157.479c-0.6948,-1.8018 0.3222,-3.2985 0.1467,-5.1036 -0.1035,-1.0662 -1.4532,-1.482 -0.678,-2.859 1.5594,-2.7699 4.9665,-0.1638 3.1518,2.1315 -0.1746,0.2208 -0.4212,0.375 -0.681,0.4515 0.0924,0.192 0.1536,0.3915 0.159,0.597 0.0252,0.9369 -0.6558,2.7444 -0.1521,3.5838 0.3309,0.5376 0.1638,1.2417 -0.3738,1.5726 -0.5376,0.3309 -1.2417,0.1638 -1.5726,-0.3738zm1.0482 -6.819c0.0573,-0.0198 0.1191,-0.0318 0.1866,-0.0363l0.0408 0.1272c-0.0444,0.0603 -0.063,0.1425 -0.0639,0.2301 0.096,0.156 0.2121,0.3156 0.3288,0.4794 0.0285,-0.0096 0.0564,-0.027 0.0858,-0.0558 0.3609,-0.3549 0.573,-1.2078 0.1641,-1.6065l-0.0939 -0.0714 -0.1251 -0.0561 -0.0816 -0.0189 -0.0084 0.009 -0.0651 0.0333 -0.0975 0.0588c-0.3606,0.2937 -0.3897,0.5937 -0.2706,0.9072z"/>
   </g>
   <path id="_74392336" class="fil1" d="M75.3219 156.88c-0.773,-1.2562 0.8604,-4.2365 -0.22,-5.2027 -1.7538,-1.5685 0.2924,-2.8555 0.8088,-2.7261 1.8129,0.4542 0.7843,3.2065 -0.1441,2.8368 -0.5689,-0.2266 -0.688,-0.9316 -0.1627,-1.1002"/>
   <g>
    <path id="_74392264" class="fil2 str1" d="M69.9295 163.687c-0.8937,-0.1047 -2.1315,1.7328 -2.607,2.1996 -0.8088,0.7941 -2.907,3.0834 -4.2093,1.494 -0.7605,-0.9279 -2.0115,-2.7042 -0.7647,-3.747 1.452,-1.2144 3.3321,-1.1589 3.072,0.9972l-0.1212 0.0072c-0.3726,-0.7797 -0.6036,-1.3821 -1.491,-0.7698l-0.3567 0.2829 -0.2934 0.3027 -0.0933 0.1299 0.0018 0.0057 0.0156 0.0621 0.0705 0.201 0.5163 0.8589 0.5181 0.5346 0.0465 0.0243 0.0171 -0.0018 -0.0012 -0.0096 0.0033 -0.009 0.0264 -0.0135c2.238,-1.2165 2.8452,-4.4469 5.6502,-4.8354 0.6312,0 1.143,0.5118 1.143,1.143 0,0.6312 -0.5118,1.143 -1.143,1.143z"/>
   </g>
   <path id="_74392072" class="fil1" d="M69.9292 162.545c-2.1258,0 -4.6659,5.7975 -6.2793,4.2692 -0.8777,-0.8314 -1.3867,-2.1411 -1.1525,-2.4757 0.4853,-0.6931 2.7062,-2.3339 2.8622,0.2967"/>
  </g>
 </g>
</svg>
